<svg version="1" xmlns="http://www.w3.org/2000/svg" width="400" height="400" viewBox="0 0 300.000000 300.000000"><path d="M0 150v150h300V0H0v150zm98.2-95c5.2 1.5 9 4.9 13.9 12.8 4.2 6.7 11.8 17.7 25.2 36.5 7.6 10.7 10.5 12.7 14.3 10.2 2.9-1.9 4.2-3.6 23-30C192.3 59.5 195 56.4 200 55c4.3-1.2 14.9-1.2 20.9-.1 5.5 1.1 7.3 3.2 6 6.9-.5 1.5-11.1 16.2-23.5 32.7-28.5 38-32.4 43.8-32.4 47.8 0 3.7 1.4 5.8 37.8 56.6 14 19.5 25.8 36.5 26.3 37.9.7 1.8.5 3.1-.6 4.8-1.5 2.3-2 2.4-15.1 2.4-10.4 0-14.4-.4-17-1.6-2.6-1.2-6.2-5.7-15.3-19.3-30.9-45.8-33.6-49.6-36.4-50.9-2.4-1.2-3.1-1.1-5.2.2-1.3.9-9.3 11.8-17.8 24.3-29.7 44-30.4 45-33.8 46.2-4 1.4-25.4 1.4-28 .1-3.8-2.1-2.4-6.5 5.5-17.3 6.5-9 31.3-44 47.9-67.7 6.3-9 7.9-13.9 5.7-18.1-1.4-2.6-39.1-54.8-49.7-68.7C67.5 61 67.1 57 73.6 55c4.1-1.2 20.2-1.2 24.6 0z"/></svg>